<mxfile host="app.diagrams.net" modified="2023-05-04T13:59:51.442Z" agent="Mozilla/5.0 (Windows NT 10.0; Win64; x64) AppleWebKit/537.36 (KHTML, like Gecko) Chrome/113.0.0.0 Safari/537.36" etag="rEbx7tCiuB1CeUxzs_sY" version="21.2.8" type="device">
  <diagram name="Halaman-1" id="4OpNeat3Z5j63rVG8FI7">
    <mxGraphModel dx="880" dy="462" grid="1" gridSize="10" guides="1" tooltips="1" connect="1" arrows="1" fold="1" page="1" pageScale="1" pageWidth="827" pageHeight="1169" math="0" shadow="0">
      <root>
        <mxCell id="0" />
        <mxCell id="1" parent="0" />
        <mxCell id="SY9prImniH0jOq0OItgL-1" value="User" style="shape=umlActor;verticalLabelPosition=bottom;verticalAlign=top;html=1;outlineConnect=0;" vertex="1" parent="1">
          <mxGeometry x="490" y="180" width="40" height="80" as="geometry" />
        </mxCell>
        <mxCell id="SY9prImniH0jOq0OItgL-2" value="Admin" style="shape=umlActor;verticalLabelPosition=bottom;verticalAlign=top;html=1;outlineConnect=0;" vertex="1" parent="1">
          <mxGeometry x="60" y="410" width="40" height="70" as="geometry" />
        </mxCell>
        <mxCell id="SY9prImniH0jOq0OItgL-3" value="" style="endArrow=classic;html=1;rounded=0;exitX=0.25;exitY=0.1;exitDx=0;exitDy=0;exitPerimeter=0;entryX=1;entryY=0.5;entryDx=0;entryDy=0;" edge="1" parent="1" source="SY9prImniH0jOq0OItgL-1" target="SY9prImniH0jOq0OItgL-5">
          <mxGeometry width="50" height="50" relative="1" as="geometry">
            <mxPoint x="430" y="210" as="sourcePoint" />
            <mxPoint x="320" y="150" as="targetPoint" />
          </mxGeometry>
        </mxCell>
        <mxCell id="SY9prImniH0jOq0OItgL-5" value="Login/Register" style="ellipse;whiteSpace=wrap;html=1;" vertex="1" parent="1">
          <mxGeometry x="210" y="120" width="130" height="60" as="geometry" />
        </mxCell>
        <mxCell id="SY9prImniH0jOq0OItgL-7" value="" style="endArrow=classic;html=1;rounded=0;exitX=0.25;exitY=0.1;exitDx=0;exitDy=0;exitPerimeter=0;entryX=1;entryY=0.5;entryDx=0;entryDy=0;" edge="1" parent="1" source="SY9prImniH0jOq0OItgL-1" target="SY9prImniH0jOq0OItgL-8">
          <mxGeometry width="50" height="50" relative="1" as="geometry">
            <mxPoint x="440" y="210" as="sourcePoint" />
            <mxPoint x="310" y="220" as="targetPoint" />
          </mxGeometry>
        </mxCell>
        <mxCell id="SY9prImniH0jOq0OItgL-8" value="Isi Formulir Pengaduan" style="ellipse;whiteSpace=wrap;html=1;" vertex="1" parent="1">
          <mxGeometry x="215" y="195" width="120" height="50" as="geometry" />
        </mxCell>
        <mxCell id="SY9prImniH0jOq0OItgL-9" value="" style="endArrow=classic;html=1;rounded=0;" edge="1" parent="1" source="SY9prImniH0jOq0OItgL-10">
          <mxGeometry width="50" height="50" relative="1" as="geometry">
            <mxPoint x="500" y="190" as="sourcePoint" />
            <mxPoint x="310" y="280" as="targetPoint" />
          </mxGeometry>
        </mxCell>
        <mxCell id="SY9prImniH0jOq0OItgL-11" value="" style="endArrow=classic;html=1;rounded=0;exitX=0.25;exitY=0.1;exitDx=0;exitDy=0;exitPerimeter=0;entryX=1;entryY=0.5;entryDx=0;entryDy=0;" edge="1" parent="1" source="SY9prImniH0jOq0OItgL-1" target="SY9prImniH0jOq0OItgL-12">
          <mxGeometry width="50" height="50" relative="1" as="geometry">
            <mxPoint x="160" y="490" as="sourcePoint" />
            <mxPoint x="310" y="340" as="targetPoint" />
          </mxGeometry>
        </mxCell>
        <mxCell id="SY9prImniH0jOq0OItgL-12" value="Kirim" style="ellipse;whiteSpace=wrap;html=1;" vertex="1" parent="1">
          <mxGeometry x="215" y="330" width="120" height="50" as="geometry" />
        </mxCell>
        <mxCell id="SY9prImniH0jOq0OItgL-13" value="Login/Register" style="ellipse;whiteSpace=wrap;html=1;" vertex="1" parent="1">
          <mxGeometry x="210" y="400" width="130" height="60" as="geometry" />
        </mxCell>
        <mxCell id="SY9prImniH0jOq0OItgL-16" value="" style="endArrow=classic;html=1;rounded=0;exitX=0.75;exitY=0.1;exitDx=0;exitDy=0;exitPerimeter=0;entryX=0;entryY=0.5;entryDx=0;entryDy=0;" edge="1" parent="1" source="SY9prImniH0jOq0OItgL-2" target="SY9prImniH0jOq0OItgL-13">
          <mxGeometry width="50" height="50" relative="1" as="geometry">
            <mxPoint x="-10" y="330" as="sourcePoint" />
            <mxPoint x="170" y="360" as="targetPoint" />
          </mxGeometry>
        </mxCell>
        <mxCell id="SY9prImniH0jOq0OItgL-17" value="" style="endArrow=classic;html=1;rounded=0;entryX=0;entryY=0.5;entryDx=0;entryDy=0;exitX=0.75;exitY=0.1;exitDx=0;exitDy=0;exitPerimeter=0;" edge="1" parent="1" source="SY9prImniH0jOq0OItgL-2" target="SY9prImniH0jOq0OItgL-18">
          <mxGeometry width="50" height="50" relative="1" as="geometry">
            <mxPoint x="70" y="50" as="sourcePoint" />
            <mxPoint x="180" y="530" as="targetPoint" />
          </mxGeometry>
        </mxCell>
        <mxCell id="SY9prImniH0jOq0OItgL-18" value="Lihat Daftar Aduan" style="ellipse;whiteSpace=wrap;html=1;" vertex="1" parent="1">
          <mxGeometry x="205" y="470" width="140" height="60" as="geometry" />
        </mxCell>
        <mxCell id="SY9prImniH0jOq0OItgL-19" value="" style="endArrow=classic;html=1;rounded=0;entryX=1;entryY=0.5;entryDx=0;entryDy=0;" edge="1" parent="1" target="SY9prImniH0jOq0OItgL-10">
          <mxGeometry width="50" height="50" relative="1" as="geometry">
            <mxPoint x="500" y="190" as="sourcePoint" />
            <mxPoint x="330" y="285" as="targetPoint" />
          </mxGeometry>
        </mxCell>
        <mxCell id="SY9prImniH0jOq0OItgL-10" value="Isi Data Diri di Formulir Pengaduan" style="ellipse;whiteSpace=wrap;html=1;" vertex="1" parent="1">
          <mxGeometry x="215" y="260" width="120" height="50" as="geometry" />
        </mxCell>
        <mxCell id="SY9prImniH0jOq0OItgL-20" value="" style="endArrow=classic;html=1;rounded=0;exitX=0.75;exitY=0.1;exitDx=0;exitDy=0;exitPerimeter=0;entryX=0;entryY=0.5;entryDx=0;entryDy=0;" edge="1" parent="1" source="SY9prImniH0jOq0OItgL-2" target="SY9prImniH0jOq0OItgL-21">
          <mxGeometry width="50" height="50" relative="1" as="geometry">
            <mxPoint x="240" y="620" as="sourcePoint" />
            <mxPoint x="210" y="570" as="targetPoint" />
          </mxGeometry>
        </mxCell>
        <mxCell id="SY9prImniH0jOq0OItgL-21" value="Verifikasi Pengaduan" style="ellipse;whiteSpace=wrap;html=1;" vertex="1" parent="1">
          <mxGeometry x="210" y="540" width="140" height="60" as="geometry" />
        </mxCell>
        <mxCell id="SY9prImniH0jOq0OItgL-22" value="" style="endArrow=classic;html=1;rounded=0;exitX=0.75;exitY=0.1;exitDx=0;exitDy=0;exitPerimeter=0;entryX=0.033;entryY=0.283;entryDx=0;entryDy=0;entryPerimeter=0;" edge="1" parent="1" source="SY9prImniH0jOq0OItgL-2" target="SY9prImniH0jOq0OItgL-23">
          <mxGeometry width="50" height="50" relative="1" as="geometry">
            <mxPoint x="390" y="450" as="sourcePoint" />
            <mxPoint x="210" y="630" as="targetPoint" />
            <Array as="points" />
          </mxGeometry>
        </mxCell>
        <mxCell id="SY9prImniH0jOq0OItgL-23" value="Baca Aduan" style="ellipse;whiteSpace=wrap;html=1;" vertex="1" parent="1">
          <mxGeometry x="210" y="610" width="135" height="60" as="geometry" />
        </mxCell>
        <mxCell id="SY9prImniH0jOq0OItgL-24" value="" style="endArrow=classic;html=1;rounded=0;exitX=0.75;exitY=0.1;exitDx=0;exitDy=0;exitPerimeter=0;entryX=0;entryY=0.313;entryDx=0;entryDy=0;entryPerimeter=0;" edge="1" parent="1" source="SY9prImniH0jOq0OItgL-2" target="SY9prImniH0jOq0OItgL-25">
          <mxGeometry width="50" height="50" relative="1" as="geometry">
            <mxPoint x="120" y="780" as="sourcePoint" />
            <mxPoint x="210" y="710" as="targetPoint" />
          </mxGeometry>
        </mxCell>
        <mxCell id="SY9prImniH0jOq0OItgL-25" value="Memberi tindakan berupa balasan ataupun langsung ke TKP" style="ellipse;whiteSpace=wrap;html=1;" vertex="1" parent="1">
          <mxGeometry x="212.5" y="760" width="135" height="60" as="geometry" />
        </mxCell>
        <mxCell id="SY9prImniH0jOq0OItgL-26" value="Menerima Jawaban dari pihak pemerintah yang disalurkan oleh admin" style="ellipse;whiteSpace=wrap;html=1;" vertex="1" parent="1">
          <mxGeometry x="205" y="830" width="170" height="80" as="geometry" />
        </mxCell>
        <mxCell id="SY9prImniH0jOq0OItgL-27" value="" style="endArrow=classic;html=1;rounded=0;exitX=0.25;exitY=0.1;exitDx=0;exitDy=0;exitPerimeter=0;entryX=1;entryY=0.5;entryDx=0;entryDy=0;" edge="1" parent="1" source="SY9prImniH0jOq0OItgL-1" target="SY9prImniH0jOq0OItgL-26">
          <mxGeometry width="50" height="50" relative="1" as="geometry">
            <mxPoint x="490" y="200" as="sourcePoint" />
            <mxPoint x="660" y="570" as="targetPoint" />
          </mxGeometry>
        </mxCell>
        <mxCell id="SY9prImniH0jOq0OItgL-28" value="" style="endArrow=classic;html=1;rounded=0;entryX=0;entryY=0.3;entryDx=0;entryDy=0;entryPerimeter=0;" edge="1" parent="1" target="SY9prImniH0jOq0OItgL-29">
          <mxGeometry width="50" height="50" relative="1" as="geometry">
            <mxPoint x="90" y="420" as="sourcePoint" />
            <mxPoint x="220" y="720" as="targetPoint" />
          </mxGeometry>
        </mxCell>
        <mxCell id="SY9prImniH0jOq0OItgL-29" value="Mengirim Ke Pemerintah Kec. Trawas atau pihak yang bertugas" style="ellipse;whiteSpace=wrap;html=1;" vertex="1" parent="1">
          <mxGeometry x="212.5" y="680" width="150" height="60" as="geometry" />
        </mxCell>
      </root>
    </mxGraphModel>
  </diagram>
</mxfile>
